<svg xmlns="http://www.w3.org/2000/svg" width="64" height="64" viewBox="0 0 64 64" fill="none">
  <mask id="mask0_238_256" style="mask-type:alpha" maskUnits="userSpaceOnUse" x="0" y="0" width="64" height="64">
    <rect width="64" height="64" fill="#D9D9D9"/>
  </mask>
  <g mask="url(#mask0_238_256)">
    <path d="M32.0112 36C29.7063 36 27.5496 36.518 25.5412 37.554C23.5323 38.59 21.9092 40.0651 20.6718 41.9793C20.2856 42.5536 20.2403 43.1193 20.5358 43.6767C20.8314 44.234 21.3023 44.5127 21.9485 44.5127C22.213 44.5127 22.4525 44.452 22.6672 44.3307C22.8823 44.2093 23.0752 44.0358 23.2458 43.81C24.2681 42.3638 25.5434 41.2305 27.0718 40.41C28.5998 39.5896 30.2425 39.1793 31.9998 39.1793C33.7572 39.1793 35.3998 39.5896 36.9278 40.41C38.4563 41.2305 39.7316 42.3638 40.7538 43.81C40.8974 44.0358 41.0765 44.2093 41.2912 44.3307C41.5063 44.452 41.7458 44.5127 42.0098 44.5127C42.6561 44.5127 43.1272 44.2229 43.4232 43.6433C43.7187 43.0638 43.6734 42.4818 43.2872 41.8973C42.0494 40.0102 40.4263 38.5556 38.4178 37.5333C36.4094 36.5111 34.2738 36 32.0112 36ZM41.0825 28.8207C42.0532 28.8207 42.8761 28.4809 43.5512 27.8013C44.2263 27.1222 44.5638 26.2976 44.5638 25.3273C44.5638 24.3571 44.2243 23.5345 43.5452 22.8593C42.8661 22.1838 42.0412 21.846 41.0705 21.846C40.1003 21.846 39.2776 22.1858 38.6025 22.8653C37.9274 23.5444 37.5898 24.3691 37.5898 25.3393C37.5898 26.3096 37.9294 27.1322 38.6085 27.8073C39.2876 28.4829 40.1123 28.8207 41.0825 28.8207ZM22.9292 28.8207C23.8994 28.8207 24.7221 28.4809 25.3972 27.8013C26.0723 27.1222 26.4098 26.2976 26.4098 25.3273C26.4098 24.3571 26.0703 23.5345 25.3912 22.8593C24.7121 22.1838 23.8874 21.846 22.9172 21.846C21.9465 21.846 21.1236 22.1858 20.4485 22.8653C19.7734 23.5444 19.4358 24.3691 19.4358 25.3393C19.4358 26.3096 19.7754 27.1322 20.4545 27.8073C21.1336 28.4829 21.9585 28.8207 22.9292 28.8207ZM32.0045 57.3333C28.5005 57.3333 25.2069 56.6685 22.1238 55.3387C19.0407 54.0089 16.3589 52.2042 14.0785 49.9247C11.7981 47.6451 9.9925 44.9645 8.66184 41.8827C7.33161 38.8009 6.6665 35.5082 6.6665 32.0047C6.6665 28.5007 7.33139 25.2071 8.66117 22.124C9.99095 19.0409 11.7956 16.3591 14.0752 14.0787C16.3547 11.7982 19.0354 9.99267 22.1172 8.662C25.1989 7.33178 28.4916 6.66667 31.9952 6.66667C35.4992 6.66667 38.7927 7.33156 41.8758 8.66134C44.959 9.99112 47.6407 11.7958 49.9212 14.0753C52.2016 16.3549 54.0072 19.0356 55.3378 22.1173C56.6681 25.1991 57.3332 28.4918 57.3332 31.9953C57.3332 35.4993 56.6683 38.7929 55.3385 41.876C54.0087 44.9591 52.2041 47.6409 49.9245 49.9213C47.645 52.2018 44.9643 54.0073 41.8825 55.338C38.8007 56.6682 35.5081 57.3333 32.0045 57.3333ZM31.9998 53.3333C37.9554 53.3333 42.9998 51.2667 47.1332 47.1333C51.2665 43 53.3332 37.9556 53.3332 32C53.3332 26.0445 51.2665 21 47.1332 16.8667C42.9998 12.7333 37.9554 10.6667 31.9998 10.6667C26.0443 10.6667 20.9998 12.7333 16.8665 16.8667C12.7332 21 10.6665 26.0445 10.6665 32C10.6665 37.9556 12.7332 43 16.8665 47.1333C20.9998 51.2667 26.0443 53.3333 31.9998 53.3333Z" fill="#322F29"/>
  </g>
</svg>
