<svg xmlns="http://www.w3.org/2000/svg" width="19" height="18" viewBox="0 0 19 18" fill="none">
  <mask id="mask0_244_448" style="mask-type:alpha" maskUnits="userSpaceOnUse" x="0" y="0" width="19" height="18">
    <rect x="0.5" width="18" height="18" fill="#D9D9D9"/>
  </mask>
  <g mask="url(#mask0_244_448)">
    <path d="M9.5 13.5L6.35 14.85C5.85 15.0625 5.375 15.0219 4.925 14.7281C4.475 14.4344 4.25 14.0188 4.25 13.4813V3.75C4.25 3.3375 4.39688 2.98438 4.69063 2.69063C4.98438 2.39688 5.3375 2.25 5.75 2.25H13.25C13.6625 2.25 14.0156 2.39688 14.3094 2.69063C14.6031 2.98438 14.75 3.3375 14.75 3.75V13.4813C14.75 14.0188 14.525 14.4344 14.075 14.7281C13.625 15.0219 13.15 15.0625 12.65 14.85L9.5 13.5ZM9.5 11.85L13.25 13.4625V3.75H5.75V13.4625L9.5 11.85Z" fill="currentColor"/>
  </g>
</svg>
