<svg width="18" height="18" viewBox="0 0 18 18" fill="none" xmlns="http://www.w3.org/2000/svg">
<mask id="mask0_63_96" style="mask-type:alpha" maskUnits="userSpaceOnUse" x="0" y="0" width="18" height="18">
<rect width="18" height="18" fill="#D9D9D9"/>
</mask>
<g mask="url(#mask0_63_96)">
<path d="M7.5001 10.2L11.9251 5.77498C12.0626 5.63748 12.2376 5.56873 12.4501 5.56873C12.6626 5.56873 12.8376 5.63748 12.9751 5.77498C13.1126 5.91248 13.1813 6.08748 13.1813 6.29998C13.1813 6.51248 13.1126 6.68748 12.9751 6.82498L8.0251 11.775C7.8751 11.925 7.7001 12 7.5001 12C7.3001 12 7.1251 11.925 6.9751 11.775L5.0251 9.82498C4.8876 9.68748 4.81885 9.51248 4.81885 9.29998C4.81885 9.08748 4.8876 8.91248 5.0251 8.77498C5.1626 8.63748 5.3376 8.56873 5.5501 8.56873C5.7626 8.56873 5.9376 8.63748 6.0751 8.77498L7.5001 10.2Z" fill="#F7971D"/>
</g>
</svg>
