<svg width="16" height="16" viewBox="0 0 16 16" fill="none" xmlns="http://www.w3.org/2000/svg">
<mask id="mask0_406_543" style="mask-type:alpha" maskUnits="userSpaceOnUse" x="0" y="0" width="16" height="16">
<rect width="16" height="16" fill="currentColor"/>
</mask>
<g mask="url(#mask0_406_543)">
<path d="M4.87183 13.6667C4.54039 13.6667 4.25667 13.5487 4.02067 13.3127C3.78467 13.0767 3.66667 12.793 3.66667 12.4615V4.00001H3.5C3.35833 4.00001 3.23961 3.95206 3.14383 3.85617C3.04794 3.76028 3 3.64151 3 3.49984C3 3.35806 3.04794 3.23934 3.14383 3.14367C3.23961 3.04789 3.35833 3.00001 3.5 3.00001H6C6 2.83678 6.0575 2.69767 6.1725 2.58267C6.28739 2.46778 6.42644 2.41034 6.58967 2.41034H9.41033C9.57356 2.41034 9.71261 2.46778 9.8275 2.58267C9.9425 2.69767 10 2.83678 10 3.00001H12.5C12.6417 3.00001 12.7604 3.04795 12.8562 3.14384C12.9521 3.23973 13 3.35851 13 3.50017C13 3.64195 12.9521 3.76067 12.8562 3.85634C12.7604 3.95212 12.6417 4.00001 12.5 4.00001H12.3333V12.4615C12.3333 12.793 12.2153 13.0767 11.9793 13.3127C11.7433 13.5487 11.4596 13.6667 11.1282 13.6667H4.87183ZM11.3333 4.00001H4.66667V12.4615C4.66667 12.5214 4.68589 12.5706 4.72433 12.609C4.76278 12.6474 4.81194 12.6667 4.87183 12.6667H11.1282C11.1881 12.6667 11.2372 12.6474 11.2757 12.609C11.3141 12.5706 11.3333 12.5214 11.3333 12.4615V4.00001ZM6.7695 11.3333C6.91117 11.3333 7.02989 11.2854 7.12567 11.1897C7.22133 11.0938 7.26917 10.975 7.26917 10.8333V5.83334C7.26917 5.69167 7.22122 5.57289 7.12533 5.47701C7.02956 5.38123 6.91078 5.33334 6.769 5.33334C6.62733 5.33334 6.50861 5.38123 6.41283 5.47701C6.31717 5.57289 6.26933 5.69167 6.26933 5.83334V10.8333C6.26933 10.975 6.31722 11.0938 6.413 11.1897C6.50889 11.2854 6.62772 11.3333 6.7695 11.3333ZM9.231 11.3333C9.37267 11.3333 9.49139 11.2854 9.58717 11.1897C9.68283 11.0938 9.73067 10.975 9.73067 10.8333V5.83334C9.73067 5.69167 9.68278 5.57289 9.587 5.47701C9.49111 5.38123 9.37228 5.33334 9.2305 5.33334C9.08883 5.33334 8.97011 5.38123 8.87433 5.47701C8.77867 5.57289 8.73083 5.69167 8.73083 5.83334V10.8333C8.73083 10.975 8.77878 11.0938 8.87467 11.1897C8.97044 11.2854 9.08922 11.3333 9.231 11.3333Z" fill="#322F29" fill-opacity="0.6"/>
</g>
</svg>
