<svg width="117" height="22" viewBox="0 0 117 22" fill="none" xmlns="http://www.w3.org/2000/svg">
<path d="M12.8333 0.5L0 7.5L12.8333 14.5L23.3333 8.77167V16.8333H25.6667V7.5M4.66667 12.3767V17.0433L12.8333 21.5L21 17.0433V12.3767L12.8333 16.8333L4.66667 12.3767Z" fill="#F7971D"/>
<path d="M38.543 3.157C40.127 3.157 41.4543 3.42833 42.525 3.971C42.8476 4.13233 43.053 4.37433 43.141 4.697C43.229 5.01967 43.185 5.34233 43.009 5.665C42.833 6.00233 42.6056 6.215 42.327 6.303C42.0483 6.37633 41.755 6.347 41.447 6.215C40.9776 6.00967 40.5303 5.87033 40.105 5.797C39.6796 5.709 39.1736 5.665 38.587 5.665C38.103 5.665 37.6776 5.72367 37.311 5.841C36.959 5.94367 36.6583 6.09033 36.409 6.281C36.1596 6.457 35.969 6.66233 35.837 6.897C35.7196 7.117 35.661 7.34433 35.661 7.579V7.711C35.661 7.98967 35.705 8.23167 35.793 8.437C35.8956 8.64233 36.0643 8.833 36.299 9.009C36.5483 9.17033 36.8856 9.32433 37.311 9.471C37.7363 9.603 38.2863 9.735 38.961 9.867C40.7943 10.2483 42.107 10.813 42.899 11.561C43.691 12.309 44.087 13.2697 44.087 14.443V14.641C44.087 16.1517 43.5956 17.303 42.613 18.095C41.6303 18.887 40.1783 19.283 38.257 19.283C37.3476 19.283 36.4603 19.173 35.595 18.953C34.7443 18.7183 34.0256 18.4177 33.439 18.051C33.087 17.831 32.889 17.5523 32.845 17.215C32.801 16.863 32.8816 16.533 33.087 16.225C33.2923 15.9023 33.5416 15.7043 33.835 15.631C34.1283 15.5577 34.4436 15.6163 34.781 15.807C35.2943 16.1003 35.859 16.335 36.475 16.511C37.091 16.6723 37.729 16.753 38.389 16.753C39.401 16.753 40.1343 16.577 40.589 16.225C41.0436 15.8583 41.271 15.4037 41.271 14.861V14.707C41.271 14.091 41.029 13.6143 40.545 13.277C40.0756 12.925 39.313 12.6463 38.257 12.441C37.333 12.265 36.5336 12.0597 35.859 11.825C35.1843 11.5903 34.6196 11.297 34.165 10.945C33.725 10.5783 33.395 10.1457 33.175 9.647C32.9696 9.13367 32.867 8.51033 32.867 7.777V7.623C32.867 7.007 32.9843 6.42767 33.219 5.885C33.4683 5.34233 33.835 4.873 34.319 4.477C34.803 4.06633 35.397 3.74367 36.101 3.509C36.805 3.27433 37.619 3.157 38.543 3.157Z" fill="#F7971D"/>
<path d="M51.7645 7.095C52.6445 7.095 53.3851 7.19033 53.9865 7.381C54.5878 7.57167 55.1011 7.80633 55.5265 8.085C55.8198 8.27567 55.9885 8.53233 56.0325 8.855C56.0765 9.17767 55.9958 9.48567 55.7905 9.779C55.6145 10.0283 55.3871 10.197 55.1085 10.285C54.8445 10.373 54.5658 10.329 54.2725 10.153C53.5538 9.72767 52.7178 9.515 51.7645 9.515C50.8551 9.515 50.1731 9.79367 49.7185 10.351C49.2785 10.8937 49.0585 11.737 49.0585 12.881V13.431C49.0585 14.531 49.2931 15.367 49.7625 15.939C50.2318 16.4963 50.9065 16.775 51.7865 16.775C52.8131 16.775 53.7078 16.5623 54.4705 16.137C54.7638 15.9757 55.0571 15.9317 55.3505 16.005C55.6585 16.0637 55.8931 16.2397 56.0545 16.533C56.2158 16.8263 56.2745 17.1343 56.2305 17.457C56.2011 17.7797 56.0325 18.0437 55.7245 18.249C55.2698 18.5423 54.6978 18.777 54.0085 18.953C53.3338 19.129 52.5858 19.217 51.7645 19.217C50.0338 19.217 48.6845 18.7403 47.7165 17.787C46.7485 16.8337 46.2645 15.3817 46.2645 13.431V12.881C46.2645 10.9303 46.7411 9.47833 47.6945 8.525C48.6625 7.57167 50.0191 7.095 51.7645 7.095Z" fill="#F7971D"/>
<path d="M59.824 2.717C60.1614 2.717 60.462 2.81233 60.726 3.003C61.0047 3.179 61.144 3.45767 61.144 3.839V8.745H61.188C61.364 8.46633 61.584 8.22433 61.848 8.019C62.112 7.799 62.398 7.623 62.706 7.491C63.0287 7.359 63.366 7.26367 63.718 7.205C64.07 7.13167 64.4147 7.095 64.752 7.095C66.0427 7.095 67.0694 7.47633 67.832 8.239C68.5947 8.987 68.976 10.1017 68.976 11.583V18.007C68.976 18.403 68.8367 18.6963 68.558 18.887C68.2794 19.0777 67.9567 19.173 67.59 19.173C67.238 19.173 66.9154 19.0777 66.622 18.887C66.3434 18.6963 66.204 18.403 66.204 18.007V12.177C66.204 11.649 66.1454 11.2163 66.028 10.879C65.9107 10.527 65.7494 10.2557 65.544 10.065C65.3387 9.85967 65.0894 9.72033 64.796 9.647C64.5174 9.559 64.2167 9.515 63.894 9.515C63.6154 9.515 63.322 9.559 63.014 9.647C62.706 9.735 62.42 9.889 62.156 10.109C61.9067 10.329 61.694 10.6223 61.518 10.989C61.3567 11.3557 61.276 11.8103 61.276 12.353V18.007C61.276 18.403 61.1367 18.6963 60.858 18.887C60.5794 19.0777 60.2567 19.173 59.89 19.173C59.538 19.173 59.2154 19.0777 58.922 18.887C58.6434 18.6963 58.504 18.403 58.504 18.007V3.839C58.504 3.45767 58.636 3.179 58.9 3.003C59.1787 2.81233 59.4867 2.717 59.824 2.717Z" fill="#F7971D"/>
<path d="M77.2061 7.095C78.9954 7.095 80.3888 7.58633 81.3861 8.569C82.3834 9.537 82.8821 10.9743 82.8821 12.881V13.431C82.8821 15.3377 82.3834 16.7823 81.3861 17.765C80.3888 18.733 78.9954 19.217 77.2061 19.217C75.4168 19.217 74.0234 18.733 73.0261 17.765C72.0288 16.7823 71.5301 15.3377 71.5301 13.431V12.881C71.5301 10.9743 72.0288 9.537 73.0261 8.569C74.0234 7.58633 75.4168 7.095 77.2061 7.095ZM77.2061 9.515C76.2088 9.515 75.4754 9.78633 75.0061 10.329C74.5514 10.8717 74.3241 11.737 74.3241 12.925V13.387C74.3241 14.575 74.5514 15.4403 75.0061 15.983C75.4754 16.5257 76.2088 16.797 77.2061 16.797C78.2034 16.797 78.9294 16.5257 79.3841 15.983C79.8534 15.4403 80.0881 14.575 80.0881 13.387V12.925C80.0881 11.737 79.8534 10.8717 79.3841 10.329C78.9294 9.78633 78.2034 9.515 77.2061 9.515Z" fill="#F7971D"/>
<path d="M86.9389 2.717C87.3055 2.717 87.6282 2.81233 87.9069 3.003C88.1855 3.19367 88.3249 3.49433 88.3249 3.905V17.985C88.3249 18.3957 88.1855 18.6963 87.9069 18.887C87.6282 19.0777 87.3055 19.173 86.9389 19.173C86.5722 19.173 86.2495 19.0777 85.9709 18.887C85.6922 18.6963 85.5529 18.3957 85.5529 17.985V3.905C85.5529 3.49433 85.6922 3.19367 85.9709 3.003C86.2495 2.81233 86.5722 2.717 86.9389 2.717Z" fill="#F7971D"/>
<path d="M92.9089 7.227C93.2609 7.227 93.5763 7.32233 93.8549 7.513C94.1483 7.70367 94.2949 7.997 94.2949 8.393V14.157C94.2949 14.685 94.3536 15.125 94.4709 15.477C94.5883 15.8143 94.7496 16.0857 94.9549 16.291C95.1603 16.4817 95.4023 16.621 95.6809 16.709C95.9596 16.7823 96.2603 16.819 96.5829 16.819C96.8616 16.819 97.1476 16.775 97.4409 16.687C97.7489 16.599 98.0276 16.445 98.2769 16.225C98.5263 16.005 98.7316 15.7117 98.8929 15.345C99.0689 14.9783 99.1569 14.5237 99.1569 13.981V8.393C99.1569 7.997 99.2963 7.70367 99.5749 7.513C99.8536 7.32233 100.176 7.227 100.543 7.227C100.895 7.227 101.21 7.32233 101.489 7.513C101.782 7.70367 101.929 7.997 101.929 8.393V18.051C101.929 18.4323 101.79 18.7183 101.511 18.909C101.247 19.085 100.946 19.173 100.609 19.173C100.272 19.173 99.9636 19.085 99.6849 18.909C99.4209 18.7183 99.2889 18.4323 99.2889 18.051V17.589H99.2449C99.0689 17.8823 98.8489 18.1317 98.5849 18.337C98.3209 18.5423 98.0276 18.711 97.7049 18.843C97.3969 18.975 97.0669 19.0703 96.7149 19.129C96.3776 19.2023 96.0476 19.239 95.7249 19.239C94.4489 19.239 93.4296 18.865 92.6669 18.117C91.9043 17.3543 91.5229 16.2323 91.5229 14.751V8.393C91.5229 7.997 91.6623 7.70367 91.9409 7.513C92.2196 7.32233 92.5423 7.227 92.9089 7.227Z" fill="#F7971D"/>
<path d="M106.619 2.717C106.985 2.717 107.308 2.81233 107.587 3.003C107.865 3.19367 108.005 3.487 108.005 3.883V8.547C108.195 8.26833 108.43 8.03367 108.709 7.843C109.002 7.65233 109.295 7.50567 109.589 7.403C109.897 7.28567 110.197 7.205 110.491 7.161C110.799 7.117 111.077 7.095 111.327 7.095C112.925 7.095 114.113 7.58633 114.891 8.569C115.668 9.537 116.057 10.967 116.057 12.859V13.431C116.057 14.3843 115.939 15.2277 115.705 15.961C115.47 16.6797 115.14 17.281 114.715 17.765C114.289 18.249 113.776 18.6157 113.175 18.865C112.588 19.0997 111.928 19.217 111.195 19.217C110.388 19.217 109.713 19.0703 109.171 18.777C108.628 18.4837 108.217 18.1023 107.939 17.633H107.873V18.051C107.873 18.4323 107.733 18.7183 107.455 18.909C107.191 19.085 106.89 19.173 106.553 19.173C106.215 19.173 105.907 19.085 105.629 18.909C105.365 18.7183 105.233 18.4323 105.233 18.051V3.883C105.233 3.487 105.372 3.19367 105.651 3.003C105.944 2.81233 106.267 2.717 106.619 2.717ZM110.777 9.471C109.853 9.471 109.149 9.74233 108.665 10.285C108.195 10.813 107.961 11.495 107.961 12.331V14.377C107.961 14.685 108.034 14.9857 108.181 15.279C108.327 15.5723 108.525 15.8363 108.775 16.071C109.024 16.3057 109.325 16.4963 109.677 16.643C110.029 16.7897 110.417 16.863 110.843 16.863C112.485 16.863 113.307 15.697 113.307 13.365V12.925C113.307 11.781 113.116 10.923 112.735 10.351C112.353 9.76433 111.701 9.471 110.777 9.471Z" fill="#F7971D"/>
</svg>
