<svg xmlns="http://www.w3.org/2000/svg" width="19" height="18" viewBox="0 0 19 18" fill="none">
  <mask id="mask0_244_413" style="mask-type:alpha" maskUnits="userSpaceOnUse" x="0" y="0" width="19" height="18">
    <rect x="0.5" width="18" height="18" fill="#D9D9D9"/>
  </mask>
  <g mask="url(#mask0_244_413)">
    <path d="M6.5 11.0625C6.34037 11.0625 6.20675 11.0086 6.09912 10.9009C5.99137 10.7932 5.9375 10.6596 5.9375 10.5V6.7933C5.9375 6.4193 6.06994 6.0998 6.33481 5.8348C6.59981 5.56993 6.91931 5.43749 7.29331 5.43749H13.7086L11.9851 3.71399C11.8736 3.60236 11.8166 3.46986 11.8141 3.31649C11.8117 3.16324 11.8687 3.02843 11.9851 2.91205C12.1015 2.79568 12.2351 2.73749 12.386 2.73749C12.537 2.73749 12.6707 2.79568 12.7871 2.91205L15.4004 5.52543C15.5361 5.66105 15.6039 5.81924 15.6039 5.99999C15.6039 6.18074 15.5361 6.33893 15.4004 6.47455L12.7871 9.09524C12.6832 9.20386 12.5546 9.26011 12.4012 9.26399C12.2478 9.26774 12.1129 9.21149 11.9966 9.09524C11.8803 8.97886 11.8214 8.84518 11.8199 8.69418C11.8186 8.5433 11.8736 8.40968 11.9851 8.2933L13.7086 6.56249H7.29331C7.22594 6.56249 7.17062 6.58411 7.12737 6.62736C7.08412 6.67061 7.0625 6.72593 7.0625 6.7933V10.5C7.0625 10.6596 7.00863 10.7932 6.90088 10.9009C6.79325 11.0086 6.65963 11.0625 6.5 11.0625ZM4.48081 15.375C4.10681 15.375 3.78731 15.2425 3.52231 14.9777C3.25744 14.7127 3.125 14.3932 3.125 14.0192V3.7933C3.125 3.63368 3.17887 3.49999 3.28662 3.39224C3.39425 3.28461 3.52788 3.2308 3.6875 3.2308C3.84712 3.2308 3.98075 3.28461 4.08838 3.39224C4.19613 3.49999 4.25 3.63368 4.25 3.7933V14.0192C4.25 14.0866 4.27163 14.1419 4.31488 14.1851C4.35813 14.2284 4.41344 14.25 4.48081 14.25H13.0192C13.0866 14.25 13.1419 14.2284 13.1851 14.1851C13.2284 14.1419 13.25 14.0866 13.25 14.0192V11.625C13.25 11.4654 13.3039 11.3317 13.4116 11.2239C13.5192 11.1163 13.6529 11.0625 13.8125 11.0625C13.9721 11.0625 14.1058 11.1163 14.2134 11.2239C14.3211 11.3317 14.375 11.4654 14.375 11.625V14.0192C14.375 14.3932 14.2426 14.7127 13.9777 14.9777C13.7127 15.2425 13.3932 15.375 13.0192 15.375H4.48081Z" fill="#1C1B1F"/>
  </g>
</svg>
