<svg width="16" height="16" viewBox="0 0 16 16" fill="none" xmlns="http://www.w3.org/2000/svg">
<mask id="mask0_244_287" style="mask-type:alpha" maskUnits="userSpaceOnUse" x="0" y="0" width="16" height="16">
<rect width="16" height="16" fill="currentColor"/>
</mask>
<g mask="url(#mask0_244_287)">
<path d="M13.7947 5.66667C14.1118 5.66667 14.3919 5.78828 14.635 6.0315C14.8782 6.27461 14.9998 6.55472 14.9998 6.87183V7.94867C14.9998 8.01867 14.9908 8.09367 14.9728 8.17367C14.9549 8.25356 14.9349 8.32817 14.9127 8.3975L13.002 12.9058C12.9066 13.1191 12.7464 13.2992 12.5217 13.4462C12.2969 13.5932 12.0623 13.6667 11.818 13.6667H4.8075V5.66667L8.68567 1.82183C8.81823 1.68939 8.97167 1.61034 9.146 1.58467C9.32034 1.559 9.48739 1.58889 9.64717 1.67434C9.80706 1.75989 9.92417 1.88128 9.9985 2.0385C10.0728 2.19572 10.0887 2.35856 10.046 2.527L9.328 5.66667H13.7947ZM5.8075 6.09233V12.6667H11.8203C11.8673 12.6667 11.9154 12.6538 11.9645 12.6282C12.0137 12.6025 12.0512 12.5598 12.0768 12.5L13.9998 8V6.87183C13.9998 6.81195 13.9806 6.76278 13.9422 6.72434C13.9037 6.68589 13.8546 6.66667 13.7947 6.66667H8.064L8.89984 3.01284L5.8075 6.09233ZM2.87167 13.6667C2.54023 13.6667 2.2565 13.5487 2.0205 13.3127C1.7845 13.0767 1.6665 12.7929 1.6665 12.4615V6.87183C1.6665 6.54039 1.7845 6.25667 2.0205 6.02067C2.2565 5.78467 2.54023 5.66667 2.87167 5.66667H4.8075V6.66667H2.87167C2.81178 6.66667 2.76262 6.68589 2.72417 6.72434C2.68573 6.76278 2.6665 6.81195 2.6665 6.87183V12.4615C2.6665 12.5214 2.68573 12.5706 2.72417 12.609C2.76262 12.6474 2.81178 12.6667 2.87167 12.6667H4.8075V13.6667H2.87167Z" fill="#322F29" fill-opacity="0.6"/>
</g>
</svg>
