<svg width="16" height="16" viewBox="0 0 16 16" fill="none" xmlns="http://www.w3.org/2000/svg">
<mask id="mask0_244_291" style="mask-type:alpha" maskUnits="userSpaceOnUse" x="0" y="0" width="16" height="16">
<rect x="16" y="16" width="16" height="16" transform="rotate(180 16 16)" fill="currentColor"/>
</mask>
<g mask="url(#mask0_244_291)">
<path d="M2.20533 10.3334C1.88822 10.3334 1.60811 10.2118 1.365 9.96853C1.12178 9.72542 1.00016 9.44531 1.00016 9.1282V8.05136C1.00016 7.98136 1.00916 7.90636 1.02716 7.82636C1.04505 7.74647 1.06511 7.67186 1.08733 7.60253L2.998 3.0942C3.09344 2.88097 3.25355 2.70086 3.47833 2.55386C3.70311 2.40686 3.93766 2.33336 4.182 2.33336H11.1925V10.3334L7.31433 14.1782C7.18177 14.3106 7.02833 14.3897 6.854 14.4154C6.67966 14.441 6.51261 14.4111 6.35283 14.3257C6.19294 14.2401 6.07583 14.1188 6.0015 13.9615C5.92716 13.8043 5.91133 13.6415 5.954 13.473L6.672 10.3334H2.20533ZM10.1925 9.9077V3.33336H4.17966C4.13266 3.33336 4.08461 3.3462 4.0355 3.37186C3.98627 3.39753 3.94883 3.44025 3.92316 3.50003L2.00016 8.00003V9.1282C2.00016 9.18809 2.01939 9.23725 2.05783 9.2757C2.09627 9.31414 2.14544 9.33336 2.20533 9.33336H7.936L7.10016 12.9872L10.1925 9.9077ZM13.1283 2.33336C13.4598 2.33336 13.7435 2.45136 13.9795 2.68736C14.2155 2.92336 14.3335 3.20708 14.3335 3.53853V9.1282C14.3335 9.45964 14.2155 9.74336 13.9795 9.97936C13.7435 10.2154 13.4598 10.3334 13.1283 10.3334H11.1925V9.33336H13.1283C13.1882 9.33336 13.2374 9.31414 13.2758 9.2757C13.3143 9.23725 13.3335 9.18809 13.3335 9.1282V3.53853C13.3335 3.47864 13.3143 3.42947 13.2758 3.39103C13.2374 3.35258 13.1882 3.33336 13.1283 3.33336H11.1925V2.33336H13.1283Z" fill="#322F29" fill-opacity="0.6"/>
</g>
</svg>
